<svg xmlns="http://www.w3.org/2000/svg" viewBox="0 0 1280 585" preserveAspectRatio="xMidYMid" width="1280" height="585" xmlns:xlink="http://www.w3.org/1999/xlink" style="shape-rendering:auto;display:block;background-position-x:0%;background-position-y:0%;background-size:auto;background-origin:padding-box;background-clip:border-box;background:scroll rgb(123, 241, 255) none  repeat;width:1280px;height:585px;;animation:none"><g><path fill="#7bf1ff" d="M -476.931 585 L -265.709 585 L -3116.09 1193.14 L -3012.06 1488.87 Z" style="fill:rgb(123, 241, 255);;animation:none"></path>
<path fill="#00ddff" d="M -265.709 585 L -114.521 585 L -3178.96 890.746 L -3116.09 1193.14 Z" style="fill:rgb(0, 221, 255);;animation:none"></path>
<path fill="#7bf1ff" d="M -114.521 585 L 0 585 L -3200 585 L -3178.96 890.746 Z" style="fill:rgb(123, 241, 255);;animation:none"></path>
<path fill="#00ddff" d="M 0 585 L 90.52 585 L -3178.96 279.254 L -3200 585 Z" style="fill:rgb(0, 221, 255);;animation:none"></path>
<path fill="#7bf1ff" d="M 90.52 585 L 164.507 585 L -3116.09 -23.1417 L -3178.96 279.254 Z" style="fill:rgb(123, 241, 255);;animation:none"></path>
<path fill="#00ddff" d="M 164.507 585 L 226.656 585 L -3012.06 -318.875 L -3116.09 -23.1417 Z" style="fill:rgb(0, 221, 255);;animation:none"></path>
<path fill="#7bf1ff" d="M 226.656 585 L 280.068 585 L -2868.01 -604.705 L -3012.06 -318.875 Z" style="fill:rgb(123, 241, 255);;animation:none"></path>
<path fill="#00ddff" d="M 280.068 585 L 326.882 585 L -2685.54 -877.5 L -2868.01 -604.705 Z" style="fill:rgb(0, 221, 255);;animation:none"></path>
<path fill="#7bf1ff" d="M 326.882 585 L 368.624 585 L -2466.63 -1134.27 L -2685.54 -877.5 Z" style="fill:rgb(123, 241, 255);;animation:none"></path>
<path fill="#00ddff" d="M 368.624 585 L 406.419 585 L -2213.68 -1372.21 L -2466.63 -1134.27 Z" style="fill:rgb(0, 221, 255);;animation:none"></path>
<path fill="#7bf1ff" d="M 406.419 585 L 441.117 585 L -1929.46 -1588.7 L -2213.68 -1372.21 Z" style="fill:rgb(123, 241, 255);;animation:none"></path>
<path fill="#00ddff" d="M 441.117 585 L 473.379 585 L -1617.1 -1781.37 L -1929.46 -1588.7 Z" style="fill:rgb(0, 221, 255);;animation:none"></path>
<path fill="#7bf1ff" d="M 473.379 585 L 503.733 585 L -1280 -1948.12 L -1617.1 -1781.37 Z" style="fill:rgb(123, 241, 255);;animation:none"></path>
<path fill="#00ddff" d="M 503.733 585 L 532.611 585 L -921.869 -2087.12 L -1280 -1948.12 Z" style="fill:rgb(0, 221, 255);;animation:none"></path>
<path fill="#7bf1ff" d="M 532.611 585 L 560.377 585 L -546.625 -2196.84 L -921.869 -2087.12 Z" style="fill:rgb(123, 241, 255);;animation:none"></path>
<path fill="#00ddff" d="M 560.377 585 L 587.345 585 L -158.381 -2276.08 L -546.625 -2196.84 Z" style="fill:rgb(0, 221, 255);;animation:none"></path>
<path fill="#7bf1ff" d="M 587.345 585 L 613.799 585 L 238.611 -2323.98 L -158.381 -2276.08 Z" style="fill:rgb(123, 241, 255);;animation:none"></path>
<path fill="#00ddff" d="M 613.799 585 L 640 585 L 640 -2340 L 238.611 -2323.98 Z" style="fill:rgb(0, 221, 255);;animation:none"></path>
<path fill="#7bf1ff" d="M 640 585 L 666.201 585 L 1041.39 -2323.98 L 640 -2340 Z" style="fill:rgb(123, 241, 255);;animation:none"></path>
<path fill="#00ddff" d="M 666.201 585 L 692.655 585 L 1438.38 -2276.08 L 1041.39 -2323.98 Z" style="fill:rgb(0, 221, 255);;animation:none"></path>
<path fill="#7bf1ff" d="M 692.655 585 L 719.623 585 L 1826.63 -2196.84 L 1438.38 -2276.08 Z" style="fill:rgb(123, 241, 255);;animation:none"></path>
<path fill="#00ddff" d="M 719.623 585 L 747.389 585 L 2201.87 -2087.12 L 1826.63 -2196.84 Z" style="fill:rgb(0, 221, 255);;animation:none"></path>
<path fill="#7bf1ff" d="M 747.389 585 L 776.267 585 L 2560 -1948.12 L 2201.87 -2087.12 Z" style="fill:rgb(123, 241, 255);;animation:none"></path>
<path fill="#00ddff" d="M 776.267 585 L 806.621 585 L 2897.1 -1781.37 L 2560 -1948.12 Z" style="fill:rgb(0, 221, 255);;animation:none"></path>
<path fill="#7bf1ff" d="M 806.621 585 L 838.883 585 L 3209.46 -1588.7 L 2897.1 -1781.37 Z" style="fill:rgb(123, 241, 255);;animation:none"></path>
<path fill="#00ddff" d="M 838.883 585 L 873.581 585 L 3493.68 -1372.21 L 3209.46 -1588.7 Z" style="fill:rgb(0, 221, 255);;animation:none"></path>
<path fill="#7bf1ff" d="M 873.581 585 L 911.376 585 L 3746.63 -1134.27 L 3493.68 -1372.21 Z" style="fill:rgb(123, 241, 255);;animation:none"></path>
<path fill="#00ddff" d="M 911.376 585 L 953.118 585 L 3965.54 -877.5 L 3746.63 -1134.27 Z" style="fill:rgb(0, 221, 255);;animation:none"></path>
<path fill="#7bf1ff" d="M 953.118 585 L 999.932 585 L 4148.01 -604.705 L 3965.54 -877.5 Z" style="fill:rgb(123, 241, 255);;animation:none"></path>
<path fill="#00ddff" d="M 999.932 585 L 1053.34 585 L 4292.06 -318.875 L 4148.01 -604.705 Z" style="fill:rgb(0, 221, 255);;animation:none"></path>
<path fill="#7bf1ff" d="M 1053.34 585 L 1115.49 585 L 4396.09 -23.1417 L 4292.06 -318.875 Z" style="fill:rgb(123, 241, 255);;animation:none"></path>
<path fill="#00ddff" d="M 1115.49 585 L 1189.48 585 L 4458.96 279.254 L 4396.09 -23.1417 Z" style="fill:rgb(0, 221, 255);;animation:none"></path>
<path fill="#7bf1ff" d="M 1189.48 585 L 1280 585 L 4480 585 L 4458.96 279.254 Z" style="fill:rgb(123, 241, 255);;animation:none"></path>
<g></g></g><!-- [ldio] generated by https://loading.io --></svg>